<svg width="417" height="252" viewBox="0 0 417 252" fill="none" xmlns="http://www.w3.org/2000/svg">
<path d="M120.03 248L110.51 220H112.67L121.71 246.76H120.63L129.95 220H131.91L141.15 246.76H140.11L149.23 220H151.23L141.75 248H139.59L130.63 222.12H131.15L122.19 248H120.03ZM163.349 248.16C161.242 248.16 159.376 247.707 157.749 246.8C156.149 245.893 154.882 244.64 153.949 243.04C153.042 241.44 152.589 239.613 152.589 237.56C152.589 235.48 153.016 233.653 153.869 232.08C154.749 230.48 155.949 229.227 157.469 228.32C158.989 227.413 160.696 226.96 162.589 226.96C164.482 226.96 166.176 227.4 167.669 228.28C169.189 229.16 170.376 230.4 171.229 232C172.109 233.573 172.549 235.4 172.549 237.48C172.549 237.56 172.536 237.653 172.509 237.76C172.509 237.84 172.509 237.933 172.509 238.04H154.069V236.48H171.429L170.629 237.24C170.656 235.613 170.309 234.16 169.589 232.88C168.896 231.573 167.949 230.56 166.749 229.84C165.549 229.093 164.162 228.72 162.589 228.72C161.042 228.72 159.656 229.093 158.429 229.84C157.229 230.56 156.282 231.573 155.589 232.88C154.896 234.16 154.549 235.627 154.549 237.28V237.64C154.549 239.347 154.922 240.867 155.669 242.2C156.442 243.507 157.496 244.533 158.829 245.28C160.162 246 161.682 246.36 163.389 246.36C164.722 246.36 165.962 246.12 167.109 245.64C168.282 245.16 169.269 244.427 170.069 243.44L171.229 244.76C170.322 245.88 169.176 246.733 167.789 247.32C166.429 247.88 164.949 248.16 163.349 248.16ZM178.736 248V218.32H180.736V248H178.736ZM197.446 248.16C195.419 248.16 193.606 247.707 192.006 246.8C190.432 245.893 189.179 244.64 188.246 243.04C187.339 241.44 186.886 239.613 186.886 237.56C186.886 235.48 187.339 233.64 188.246 232.04C189.179 230.44 190.432 229.2 192.006 228.32C193.606 227.413 195.419 226.96 197.446 226.96C199.126 226.96 200.646 227.28 202.006 227.92C203.392 228.56 204.512 229.52 205.366 230.8L203.886 231.88C203.139 230.813 202.206 230.027 201.086 229.52C199.966 229.013 198.752 228.76 197.446 228.76C195.819 228.76 194.352 229.133 193.046 229.88C191.766 230.6 190.752 231.627 190.006 232.96C189.286 234.267 188.926 235.8 188.926 237.56C188.926 239.32 189.286 240.867 190.006 242.2C190.752 243.507 191.766 244.533 193.046 245.28C194.352 246 195.819 246.36 197.446 246.36C198.752 246.36 199.966 246.107 201.086 245.6C202.206 245.093 203.139 244.307 203.886 243.24L205.366 244.32C204.512 245.6 203.392 246.56 202.006 247.2C200.646 247.84 199.126 248.16 197.446 248.16ZM219.162 248.16C217.162 248.16 215.375 247.707 213.802 246.8C212.255 245.893 211.015 244.64 210.082 243.04C209.175 241.44 208.722 239.613 208.722 237.56C208.722 235.48 209.175 233.653 210.082 232.08C211.015 230.48 212.255 229.227 213.802 228.32C215.375 227.413 217.162 226.96 219.162 226.96C221.162 226.96 222.948 227.413 224.522 228.32C226.095 229.227 227.335 230.48 228.242 232.08C229.148 233.653 229.602 235.48 229.602 237.56C229.602 239.613 229.148 241.44 228.242 243.04C227.335 244.64 226.095 245.893 224.522 246.8C222.948 247.707 221.162 248.16 219.162 248.16ZM219.162 246.36C220.762 246.36 222.202 246 223.482 245.28C224.762 244.533 225.762 243.493 226.482 242.16C227.202 240.827 227.562 239.293 227.562 237.56C227.562 235.8 227.202 234.267 226.482 232.96C225.762 231.627 224.762 230.6 223.482 229.88C222.202 229.133 220.762 228.76 219.162 228.76C217.562 228.76 216.122 229.133 214.842 229.88C213.588 230.6 212.588 231.627 211.842 232.96C211.122 234.267 210.762 235.8 210.762 237.56C210.762 239.293 211.122 240.827 211.842 242.16C212.588 243.493 213.588 244.533 214.842 245.28C216.122 246 217.562 246.36 219.162 246.36ZM261.806 226.96C263.486 226.96 264.94 227.293 266.166 227.96C267.42 228.6 268.393 229.587 269.086 230.92C269.78 232.227 270.126 233.853 270.126 235.8V248H268.126V235.96C268.126 233.613 267.553 231.827 266.406 230.6C265.26 229.373 263.66 228.76 261.606 228.76C260.033 228.76 258.673 229.093 257.526 229.76C256.38 230.427 255.5 231.36 254.886 232.56C254.273 233.76 253.966 235.2 253.966 236.88V248H251.966V235.96C251.966 233.613 251.393 231.827 250.246 230.6C249.1 229.373 247.5 228.76 245.446 228.76C243.873 228.76 242.513 229.093 241.366 229.76C240.22 230.427 239.34 231.36 238.726 232.56C238.113 233.76 237.806 235.2 237.806 236.88V248H235.806V227.12H237.726V232.88L237.446 232.24C238.06 230.613 239.086 229.333 240.526 228.4C241.966 227.44 243.7 226.96 245.726 226.96C247.806 226.96 249.553 227.493 250.966 228.56C252.406 229.6 253.313 231.16 253.686 233.24L253.006 232.96C253.566 231.173 254.62 229.733 256.166 228.64C257.713 227.52 259.593 226.96 261.806 226.96ZM286.865 248.16C284.758 248.16 282.891 247.707 281.265 246.8C279.665 245.893 278.398 244.64 277.465 243.04C276.558 241.44 276.105 239.613 276.105 237.56C276.105 235.48 276.531 233.653 277.385 232.08C278.265 230.48 279.465 229.227 280.985 228.32C282.505 227.413 284.211 226.96 286.105 226.96C287.998 226.96 289.691 227.4 291.185 228.28C292.705 229.16 293.891 230.4 294.745 232C295.625 233.573 296.065 235.4 296.065 237.48C296.065 237.56 296.051 237.653 296.025 237.76C296.025 237.84 296.025 237.933 296.025 238.04H277.585V236.48H294.945L294.145 237.24C294.171 235.613 293.825 234.16 293.105 232.88C292.411 231.573 291.465 230.56 290.265 229.84C289.065 229.093 287.678 228.72 286.105 228.72C284.558 228.72 283.171 229.093 281.945 229.84C280.745 230.56 279.798 231.573 279.105 232.88C278.411 234.16 278.065 235.627 278.065 237.28V237.64C278.065 239.347 278.438 240.867 279.185 242.2C279.958 243.507 281.011 244.533 282.345 245.28C283.678 246 285.198 246.36 286.905 246.36C288.238 246.36 289.478 246.12 290.625 245.64C291.798 245.16 292.785 244.427 293.585 243.44L294.745 244.76C293.838 245.88 292.691 246.733 291.305 247.32C289.945 247.88 288.465 248.16 286.865 248.16ZM302.292 239.96L301.892 220H304.212L303.812 239.96H302.292ZM303.052 248.16C302.598 248.16 302.212 248 301.892 247.68C301.572 247.333 301.412 246.947 301.412 246.52C301.412 246.067 301.572 245.68 301.892 245.36C302.212 245.04 302.598 244.88 303.052 244.88C303.532 244.88 303.932 245.04 304.252 245.36C304.572 245.68 304.732 246.067 304.732 246.52C304.732 246.947 304.572 247.333 304.252 247.68C303.932 248 303.532 248.16 303.052 248.16Z" fill="black"/>
<path d="M119.186 33V2.2H130.23C132.812 2.2 135.026 2.61066 136.874 3.432C138.722 4.25333 140.145 5.44133 141.142 6.996C142.14 8.52133 142.638 10.384 142.638 12.584C142.638 14.7253 142.14 16.5733 141.142 18.128C140.145 19.6827 138.722 20.8707 136.874 21.692C135.026 22.5133 132.812 22.924 130.23 22.924H120.418L121.43 21.868V33H119.186ZM121.43 22L120.418 20.9H130.23C133.545 20.9 136.053 20.1813 137.754 18.744C139.485 17.2773 140.35 15.224 140.35 12.584C140.35 9.91467 139.485 7.86133 137.754 6.424C136.053 4.95733 133.545 4.224 130.23 4.224H120.418L121.43 3.124V22ZM158.705 33.176C156.388 33.176 154.334 32.6773 152.545 31.68C150.785 30.6827 149.392 29.304 148.365 27.544C147.368 25.784 146.869 23.7747 146.869 21.516C146.869 19.228 147.338 17.2187 148.277 15.488C149.245 13.728 150.565 12.3493 152.237 11.352C153.909 10.3547 155.786 9.856 157.869 9.856C159.952 9.856 161.814 10.34 163.457 11.308C165.129 12.276 166.434 13.64 167.373 15.4C168.341 17.1307 168.825 19.14 168.825 21.428C168.825 21.516 168.81 21.6187 168.781 21.736C168.781 21.824 168.781 21.9267 168.781 22.044H148.497V20.328H167.593L166.713 21.164C166.742 19.3747 166.361 17.776 165.569 16.368C164.806 14.9307 163.765 13.816 162.445 13.024C161.125 12.2027 159.6 11.792 157.869 11.792C156.168 11.792 154.642 12.2027 153.293 13.024C151.973 13.816 150.932 14.9307 150.169 16.368C149.406 17.776 149.025 19.3893 149.025 21.208V21.604C149.025 23.4813 149.436 25.1533 150.257 26.62C151.108 28.0573 152.266 29.1867 153.733 30.008C155.2 30.8 156.872 31.196 158.749 31.196C160.216 31.196 161.58 30.932 162.841 30.404C164.132 29.876 165.217 29.0693 166.097 27.984L167.373 29.436C166.376 30.668 165.114 31.6067 163.589 32.252C162.093 32.868 160.465 33.176 158.705 33.176ZM175.631 33V10.032H177.743V16.324L177.523 15.62C178.168 13.772 179.253 12.3493 180.779 11.352C182.304 10.3547 184.211 9.856 186.499 9.856V12.012C186.411 12.012 186.323 12.012 186.235 12.012C186.147 11.9827 186.059 11.968 185.971 11.968C183.419 11.968 181.424 12.7747 179.987 14.388C178.549 15.972 177.831 18.1867 177.831 21.032V33H175.631ZM198.626 33.176C196.72 33.176 194.93 32.8973 193.258 32.34C191.616 31.7827 190.34 31.0787 189.43 30.228L190.442 28.468C191.322 29.2307 192.496 29.8907 193.962 30.448C195.429 30.976 197.013 31.24 198.714 31.24C201.12 31.24 202.85 30.844 203.906 30.052C204.962 29.26 205.49 28.2187 205.49 26.928C205.49 25.9893 205.212 25.256 204.654 24.728C204.126 24.1707 203.408 23.7453 202.498 23.452C201.589 23.1587 200.592 22.924 199.506 22.748C198.421 22.5427 197.336 22.3227 196.25 22.088C195.165 21.8533 194.168 21.516 193.258 21.076C192.349 20.636 191.616 20.0347 191.058 19.272C190.53 18.48 190.266 17.4387 190.266 16.148C190.266 14.9747 190.589 13.9187 191.234 12.98C191.88 12.0413 192.848 11.2933 194.138 10.736C195.429 10.1493 197.042 9.856 198.978 9.856C200.416 9.856 201.853 10.0613 203.29 10.472C204.757 10.8827 205.945 11.4253 206.854 12.1L205.842 13.86C204.874 13.1267 203.789 12.5987 202.586 12.276C201.384 11.9533 200.166 11.792 198.934 11.792C196.705 11.792 195.062 12.2027 194.006 13.024C192.98 13.8453 192.466 14.872 192.466 16.104C192.466 17.072 192.73 17.8493 193.258 18.436C193.816 18.9933 194.549 19.4333 195.458 19.756C196.368 20.0493 197.365 20.2987 198.45 20.504C199.536 20.68 200.621 20.8853 201.706 21.12C202.792 21.3547 203.789 21.692 204.698 22.132C205.608 22.5427 206.326 23.1293 206.854 23.892C207.412 24.6253 207.69 25.6227 207.69 26.884C207.69 28.1453 207.338 29.2453 206.634 30.184C205.96 31.1227 204.948 31.856 203.598 32.384C202.249 32.912 200.592 33.176 198.626 33.176ZM222.806 33.176C220.606 33.176 218.641 32.6773 216.91 31.68C215.209 30.6827 213.845 29.304 212.818 27.544C211.821 25.784 211.322 23.7747 211.322 21.516C211.322 19.228 211.821 17.2187 212.818 15.488C213.845 13.728 215.209 12.3493 216.91 11.352C218.641 10.3547 220.606 9.856 222.806 9.856C225.006 9.856 226.971 10.3547 228.702 11.352C230.433 12.3493 231.797 13.728 232.794 15.488C233.791 17.2187 234.29 19.228 234.29 21.516C234.29 23.7747 233.791 25.784 232.794 27.544C231.797 29.304 230.433 30.6827 228.702 31.68C226.971 32.6773 225.006 33.176 222.806 33.176ZM222.806 31.196C224.566 31.196 226.15 30.8 227.558 30.008C228.966 29.1867 230.066 28.0427 230.858 26.576C231.65 25.1093 232.046 23.4227 232.046 21.516C232.046 19.58 231.65 17.8933 230.858 16.456C230.066 14.9893 228.966 13.86 227.558 13.068C226.15 12.2467 224.566 11.836 222.806 11.836C221.046 11.836 219.462 12.2467 218.054 13.068C216.675 13.86 215.575 14.9893 214.754 16.456C213.962 17.8933 213.566 19.58 213.566 21.516C213.566 23.4227 213.962 25.1093 214.754 26.576C215.575 28.0427 216.675 29.1867 218.054 30.008C219.462 30.8 221.046 31.196 222.806 31.196ZM252.335 9.856C254.213 9.856 255.841 10.2227 257.219 10.956C258.627 11.66 259.713 12.7453 260.475 14.212C261.267 15.6493 261.663 17.4387 261.663 19.58V33H259.463V19.756C259.463 17.1747 258.803 15.2093 257.483 13.86C256.193 12.5107 254.374 11.836 252.027 11.836C250.238 11.836 248.683 12.2027 247.363 12.936C246.043 13.6693 245.031 14.696 244.327 16.016C243.653 17.336 243.315 18.92 243.315 20.768V33H241.115V10.032H243.227V16.412L242.919 15.708C243.623 13.8893 244.782 12.4667 246.395 11.44C248.009 10.384 249.989 9.856 252.335 9.856ZM285.197 33V27.764L285.109 26.972V18.348C285.109 16.2067 284.522 14.5787 283.349 13.464C282.205 12.3493 280.518 11.792 278.289 11.792C276.705 11.792 275.223 12.0707 273.845 12.628C272.495 13.156 271.337 13.8453 270.369 14.696L269.269 13.112C270.413 12.0853 271.791 11.2933 273.405 10.736C275.018 10.1493 276.705 9.856 278.465 9.856C281.31 9.856 283.495 10.5747 285.021 12.012C286.546 13.4493 287.309 15.5907 287.309 18.436V33H285.197ZM276.925 33.176C275.223 33.176 273.742 32.912 272.481 32.384C271.249 31.8267 270.295 31.0493 269.621 30.052C268.975 29.0547 268.653 27.9107 268.653 26.62C268.653 25.4467 268.917 24.3907 269.445 23.452C270.002 22.484 270.911 21.7067 272.173 21.12C273.434 20.504 275.121 20.196 277.233 20.196H285.681V21.912H277.277C274.901 21.912 273.229 22.352 272.261 23.232C271.322 24.112 270.853 25.212 270.853 26.532C270.853 27.9987 271.41 29.172 272.525 30.052C273.639 30.932 275.209 31.372 277.233 31.372C279.169 31.372 280.797 30.932 282.117 30.052C283.466 29.172 284.463 27.896 285.109 26.224L285.725 27.72C285.109 29.392 284.053 30.7267 282.557 31.724C281.09 32.692 279.213 33.176 276.925 33.176ZM296.373 33V0.351998H298.573V33H296.373ZM128.664 71.38H145.34V73.404H128.664V71.38ZM128.928 87H126.684V56.2H147.276V58.224H128.928V87ZM153.738 87V64.032H155.938V87H153.738ZM154.838 58.444C154.34 58.444 153.914 58.268 153.562 57.916C153.21 57.564 153.034 57.1533 153.034 56.684C153.034 56.1853 153.21 55.76 153.562 55.408C153.914 55.056 154.34 54.88 154.838 54.88C155.366 54.88 155.792 55.056 156.114 55.408C156.466 55.7307 156.642 56.1413 156.642 56.64C156.642 57.1387 156.466 57.564 156.114 57.916C155.792 58.268 155.366 58.444 154.838 58.444ZM176.431 63.856C178.308 63.856 179.936 64.2227 181.315 64.956C182.723 65.66 183.808 66.7453 184.571 68.212C185.363 69.6493 185.759 71.4387 185.759 73.58V87H183.559V73.756C183.559 71.1747 182.899 69.2093 181.579 67.86C180.288 66.5107 178.47 65.836 176.123 65.836C174.334 65.836 172.779 66.2027 171.459 66.936C170.139 67.6693 169.127 68.696 168.423 70.016C167.748 71.336 167.411 72.92 167.411 74.768V87H165.211V64.032H167.323V70.412L167.015 69.708C167.719 67.8893 168.878 66.4667 170.491 65.44C172.104 64.384 174.084 63.856 176.431 63.856ZM209.292 87V81.764L209.204 80.972V72.348C209.204 70.2067 208.618 68.5787 207.444 67.464C206.3 66.3493 204.614 65.792 202.384 65.792C200.8 65.792 199.319 66.0707 197.94 66.628C196.591 67.156 195.432 67.8453 194.464 68.696L193.364 67.112C194.508 66.0853 195.887 65.2933 197.5 64.736C199.114 64.1493 200.8 63.856 202.56 63.856C205.406 63.856 207.591 64.5747 209.116 66.012C210.642 67.4493 211.404 69.5907 211.404 72.436V87H209.292ZM201.02 87.176C199.319 87.176 197.838 86.912 196.576 86.384C195.344 85.8267 194.391 85.0493 193.716 84.052C193.071 83.0547 192.748 81.9107 192.748 80.62C192.748 79.4467 193.012 78.3907 193.54 77.452C194.098 76.484 195.007 75.7067 196.268 75.12C197.53 74.504 199.216 74.196 201.328 74.196H209.776V75.912H201.372C198.996 75.912 197.324 76.352 196.356 77.232C195.418 78.112 194.948 79.212 194.948 80.532C194.948 81.9987 195.506 83.172 196.62 84.052C197.735 84.932 199.304 85.372 201.328 85.372C203.264 85.372 204.892 84.932 206.212 84.052C207.562 83.172 208.559 81.896 209.204 80.224L209.82 81.72C209.204 83.392 208.148 84.7267 206.652 85.724C205.186 86.692 203.308 87.176 201.02 87.176ZM231.689 63.856C233.566 63.856 235.194 64.2227 236.573 64.956C237.981 65.66 239.066 66.7453 239.829 68.212C240.621 69.6493 241.017 71.4387 241.017 73.58V87H238.817V73.756C238.817 71.1747 238.157 69.2093 236.837 67.86C235.546 66.5107 233.727 65.836 231.381 65.836C229.591 65.836 228.037 66.2027 226.717 66.936C225.397 67.6693 224.385 68.696 223.681 70.016C223.006 71.336 222.669 72.92 222.669 74.768V87H220.469V64.032H222.581V70.412L222.273 69.708C222.977 67.8893 224.135 66.4667 225.749 65.44C227.362 64.384 229.342 63.856 231.689 63.856ZM259.182 87.176C256.953 87.176 254.958 86.6773 253.198 85.68C251.467 84.6827 250.089 83.304 249.062 81.544C248.065 79.784 247.566 77.7747 247.566 75.516C247.566 73.228 248.065 71.204 249.062 69.444C250.089 67.684 251.467 66.32 253.198 65.352C254.958 64.3547 256.953 63.856 259.182 63.856C261.03 63.856 262.702 64.208 264.198 64.912C265.723 65.616 266.955 66.672 267.894 68.08L266.266 69.268C265.445 68.0947 264.418 67.2293 263.186 66.672C261.954 66.1147 260.619 65.836 259.182 65.836C257.393 65.836 255.779 66.2467 254.342 67.068C252.934 67.86 251.819 68.9893 250.998 70.456C250.206 71.8933 249.81 73.58 249.81 75.516C249.81 77.452 250.206 79.1533 250.998 80.62C251.819 82.0573 252.934 83.1867 254.342 84.008C255.779 84.8 257.393 85.196 259.182 85.196C260.619 85.196 261.954 84.9173 263.186 84.36C264.418 83.8027 265.445 82.9373 266.266 81.764L267.894 82.952C266.955 84.36 265.723 85.416 264.198 86.12C262.702 86.824 261.03 87.176 259.182 87.176ZM283.422 87.176C281.104 87.176 279.051 86.6773 277.262 85.68C275.502 84.6827 274.108 83.304 273.082 81.544C272.084 79.784 271.586 77.7747 271.586 75.516C271.586 73.228 272.055 71.2187 272.994 69.488C273.962 67.728 275.282 66.3493 276.954 65.352C278.626 64.3547 280.503 63.856 282.586 63.856C284.668 63.856 286.531 64.34 288.174 65.308C289.846 66.276 291.151 67.64 292.09 69.4C293.058 71.1307 293.542 73.14 293.542 75.428C293.542 75.516 293.527 75.6187 293.498 75.736C293.498 75.824 293.498 75.9267 293.498 76.044H273.214V74.328H292.31L291.43 75.164C291.459 73.3747 291.078 71.776 290.286 70.368C289.523 68.9307 288.482 67.816 287.162 67.024C285.842 66.2027 284.316 65.792 282.586 65.792C280.884 65.792 279.359 66.2027 278.01 67.024C276.69 67.816 275.648 68.9307 274.886 70.368C274.123 71.776 273.742 73.3893 273.742 75.208V75.604C273.742 77.4813 274.152 79.1533 274.974 80.62C275.824 82.0573 276.983 83.1867 278.45 84.008C279.916 84.8 281.588 85.196 283.466 85.196C284.932 85.196 286.296 84.932 287.558 84.404C288.848 83.876 289.934 83.0693 290.814 81.984L292.09 83.436C291.092 84.668 289.831 85.6067 288.306 86.252C286.81 86.868 285.182 87.176 283.422 87.176ZM121.601 141L135.769 110.2H138.013L152.181 141H149.761L136.385 111.608H137.353L124.021 141H121.601ZM126.793 132.332L127.541 130.44H145.977L146.725 132.332H126.793ZM168.288 117.856C170.166 117.856 171.794 118.223 173.172 118.956C174.58 119.66 175.666 120.745 176.428 122.212C177.22 123.649 177.616 125.439 177.616 127.58V141H175.416V127.756C175.416 125.175 174.756 123.209 173.436 121.86C172.146 120.511 170.327 119.836 167.98 119.836C166.191 119.836 164.636 120.203 163.316 120.936C161.996 121.669 160.984 122.696 160.28 124.016C159.606 125.336 159.268 126.92 159.268 128.768V141H157.068V118.032H159.18V124.412L158.872 123.708C159.576 121.889 160.735 120.467 162.348 119.44C163.962 118.384 165.942 117.856 168.288 117.856ZM201.15 141V135.764L201.062 134.972V126.348C201.062 124.207 200.475 122.579 199.302 121.464C198.158 120.349 196.471 119.792 194.242 119.792C192.658 119.792 191.176 120.071 189.798 120.628C188.448 121.156 187.29 121.845 186.322 122.696L185.222 121.112C186.366 120.085 187.744 119.293 189.358 118.736C190.971 118.149 192.658 117.856 194.418 117.856C197.263 117.856 199.448 118.575 200.974 120.012C202.499 121.449 203.262 123.591 203.262 126.436V141H201.15ZM192.878 141.176C191.176 141.176 189.695 140.912 188.434 140.384C187.202 139.827 186.248 139.049 185.574 138.052C184.928 137.055 184.606 135.911 184.606 134.62C184.606 133.447 184.87 132.391 185.398 131.452C185.955 130.484 186.864 129.707 188.126 129.12C189.387 128.504 191.074 128.196 193.186 128.196H201.634V129.912H193.23C190.854 129.912 189.182 130.352 188.214 131.232C187.275 132.112 186.806 133.212 186.806 134.532C186.806 135.999 187.363 137.172 188.478 138.052C189.592 138.932 191.162 139.372 193.186 139.372C195.122 139.372 196.75 138.932 198.07 138.052C199.419 137.172 200.416 135.896 201.062 134.224L201.678 135.72C201.062 137.392 200.006 138.727 198.51 139.724C197.043 140.692 195.166 141.176 192.878 141.176ZM212.326 141V108.352H214.526V141H212.326ZM223.271 149.712C222.215 149.712 221.217 149.536 220.279 149.184C219.369 148.832 218.592 148.319 217.947 147.644L219.047 145.972C219.633 146.588 220.264 147.043 220.939 147.336C221.643 147.629 222.435 147.776 223.315 147.776C224.371 147.776 225.295 147.483 226.087 146.896C226.908 146.309 227.671 145.239 228.375 143.684L229.959 140.164L230.267 139.768L239.991 118.032H242.235L230.443 144.124C229.827 145.532 229.152 146.632 228.419 147.424C227.715 148.245 226.937 148.832 226.087 149.184C225.236 149.536 224.297 149.712 223.271 149.712ZM229.915 141.572L219.267 118.032H221.599L231.279 139.636L229.915 141.572ZM252.595 141.176C250.688 141.176 248.899 140.897 247.227 140.34C245.584 139.783 244.308 139.079 243.399 138.228L244.411 136.468C245.291 137.231 246.464 137.891 247.931 138.448C249.398 138.976 250.982 139.24 252.683 139.24C255.088 139.24 256.819 138.844 257.875 138.052C258.931 137.26 259.459 136.219 259.459 134.928C259.459 133.989 259.18 133.256 258.623 132.728C258.095 132.171 257.376 131.745 256.467 131.452C255.558 131.159 254.56 130.924 253.475 130.748C252.39 130.543 251.304 130.323 250.219 130.088C249.134 129.853 248.136 129.516 247.227 129.076C246.318 128.636 245.584 128.035 245.027 127.272C244.499 126.48 244.235 125.439 244.235 124.148C244.235 122.975 244.558 121.919 245.203 120.98C245.848 120.041 246.816 119.293 248.107 118.736C249.398 118.149 251.011 117.856 252.947 117.856C254.384 117.856 255.822 118.061 257.259 118.472C258.726 118.883 259.914 119.425 260.823 120.1L259.811 121.86C258.843 121.127 257.758 120.599 256.555 120.276C255.352 119.953 254.135 119.792 252.903 119.792C250.674 119.792 249.031 120.203 247.975 121.024C246.948 121.845 246.435 122.872 246.435 124.104C246.435 125.072 246.699 125.849 247.227 126.436C247.784 126.993 248.518 127.433 249.427 127.756C250.336 128.049 251.334 128.299 252.419 128.504C253.504 128.68 254.59 128.885 255.675 129.12C256.76 129.355 257.758 129.692 258.667 130.132C259.576 130.543 260.295 131.129 260.823 131.892C261.38 132.625 261.659 133.623 261.659 134.884C261.659 136.145 261.307 137.245 260.603 138.184C259.928 139.123 258.916 139.856 257.567 140.384C256.218 140.912 254.56 141.176 252.595 141.176ZM267.799 141V118.032H269.999V141H267.799ZM268.899 112.444C268.4 112.444 267.975 112.268 267.623 111.916C267.271 111.564 267.095 111.153 267.095 110.684C267.095 110.185 267.271 109.76 267.623 109.408C267.975 109.056 268.4 108.88 268.899 108.88C269.427 108.88 269.852 109.056 270.175 109.408C270.527 109.731 270.703 110.141 270.703 110.64C270.703 111.139 270.527 111.564 270.175 111.916C269.852 112.268 269.427 112.444 268.899 112.444ZM285.079 141.176C283.173 141.176 281.383 140.897 279.711 140.34C278.069 139.783 276.793 139.079 275.883 138.228L276.895 136.468C277.775 137.231 278.949 137.891 280.415 138.448C281.882 138.976 283.466 139.24 285.167 139.24C287.573 139.24 289.303 138.844 290.359 138.052C291.415 137.26 291.943 136.219 291.943 134.928C291.943 133.989 291.665 133.256 291.107 132.728C290.579 132.171 289.861 131.745 288.951 131.452C288.042 131.159 287.045 130.924 285.959 130.748C284.874 130.543 283.789 130.323 282.703 130.088C281.618 129.853 280.621 129.516 279.711 129.076C278.802 128.636 278.069 128.035 277.511 127.272C276.983 126.48 276.719 125.439 276.719 124.148C276.719 122.975 277.042 121.919 277.687 120.98C278.333 120.041 279.301 119.293 280.591 118.736C281.882 118.149 283.495 117.856 285.431 117.856C286.869 117.856 288.306 118.061 289.743 118.472C291.21 118.883 292.398 119.425 293.307 120.1L292.295 121.86C291.327 121.127 290.242 120.599 289.039 120.276C287.837 119.953 286.619 119.792 285.387 119.792C283.158 119.792 281.515 120.203 280.459 121.024C279.433 121.845 278.919 122.872 278.919 124.104C278.919 125.072 279.183 125.849 279.711 126.436C280.269 126.993 281.002 127.433 281.911 127.756C282.821 128.049 283.818 128.299 284.903 128.504C285.989 128.68 287.074 128.885 288.159 129.12C289.245 129.355 290.242 129.692 291.151 130.132C292.061 130.543 292.779 131.129 293.307 131.892C293.865 132.625 294.143 133.623 294.143 134.884C294.143 136.145 293.791 137.245 293.087 138.184C292.413 139.123 291.401 139.856 290.051 140.384C288.702 140.912 287.045 141.176 285.079 141.176Z" fill="black"/>
<path d="M58 174H204.193H359" stroke="black" stroke-width="2"/>
</svg>
