<svg id="Layer_1" data-name="Layer 1" xmlns="http://www.w3.org/2000/svg" viewBox="0 0 512 512"><defs><style>.cls-1{fill:#141f38;}</style></defs><title>wallet-glyph</title><path class="cls-1" d="M435.2,384a64.19,64.19,0,0,1-64,64H64A64.19,64.19,0,0,1,0,384V128A64.19,64.19,0,0,1,64,64H371.2a64.19,64.19,0,0,1,64,64v38.4H396.8c-49.28,0-89.6,40.32-89.6,89.6s40.32,89.6,89.6,89.6h38.4ZM448,64H433.79a89.29,89.29,0,0,1,27,64v38.4H512V128A64.19,64.19,0,0,0,448,64Zm12.8,320a89.29,89.29,0,0,1-27,64H448a64.19,64.19,0,0,0,64-64V345.6H460.8Zm-64-192H512V320H396.8a64,64,0,1,1,0-128Zm0,38.4A25.6,25.6,0,1,0,422.4,256,25.6,25.6,0,0,0,396.8,230.4Z"/></svg>